<svg xmlns="http://www.w3.org/2000/svg" width="20.63" height="24.268" viewBox="0 0 20.63 24.268"><defs><style>.a{fill:#f8c10e;}</style></defs><path class="a" d="M23.628,8.31c0,4.368-.607,9.828-2.548,11.77-1.213,1.213-9.222,2.184-10.8,1.577-1.456-.485-4.368-.849-6.795-7.159-1.577-4,1.092-5.339,2.063-5.339.243,3.033,1.577,5.946,2.184,6.31A33.939,33.939,0,0,1,6.641,8.31C6.762,3.7,8.339,2,15.256,2S23.628,3.7,23.628,8.31Z" transform="translate(-2.998 -2)"/><path class="a" d="M20.455,17.907a17.183,17.183,0,0,1-7.038.849A11.516,11.516,0,0,1,8.2,17.3c0,2.305.364,4.368.728,4.732.607.607,2.063.971,5.46.971s4.975-.364,5.339-.971A20.808,20.808,0,0,0,20.455,17.907Z" transform="translate(-1.888 1.265)"/></svg>