<svg xmlns="http://www.w3.org/2000/svg" width="20.924" height="20.79" viewBox="0 0 20.924 20.79"><defs><style>.a{fill:none;stroke:#f8c10e;stroke-miterlimit:10;stroke-width:2px;}.b{fill:#f8c10e;}</style></defs><g transform="translate(0 -0.22)"><path class="a" d="M11.486,10.9l1.779,3.871a1.031,1.031,0,0,1-.942,1.465H5" transform="translate(-1.861 -1.502)"/><path class="a" d="M6,5.055,10.289,3.9a2.139,2.139,0,0,1,1.779.314l4.08,3.034a2.082,2.082,0,0,1,.837,1.255l.209,1.151a2.138,2.138,0,0,0,2.092,1.674h3.452" transform="translate(-1.815 -1.83)"/><path class="b" d="M16.213,8.648l-3.766,3.034v4.5L9.518,12.1a2.11,2.11,0,0,1,.314-2.825L14.54,5.3l1.779,1.255Z" transform="translate(-1.671 -1.761)"/><circle class="b" cx="2" cy="2" r="2" transform="translate(15 0.22)"/><path class="b" d="M7.979,22.185,12.059,18H9.129L6.2,21.034Z" transform="translate(-1.806 -1.175)"/><g transform="translate(0 5.317)"><path class="b" d="M9.323,7.837,10.474,7H2V8.046H9.009C9.114,7.942,9.219,7.942,9.323,7.837Z" transform="translate(-2 -7)"/><path class="b" d="M7.754,11H2v1.046H8.068A3.986,3.986,0,0,1,7.754,11Z" transform="translate(-2 -6.815)"/><path class="b" d="M8.173,9H2v1.046H7.859A3.07,3.07,0,0,1,8.173,9Z" transform="translate(-2 -6.908)"/></g></g></svg>