<svg xmlns="http://www.w3.org/2000/svg" width="20.836" height="20.794" viewBox="0 0 20.836 20.794"><defs><style>.a{fill:#f8c10e;}.b{fill:none;stroke:#f8c10e;stroke-linecap:round;stroke-miterlimit:10;stroke-width:2px;}</style></defs><path class="a" d="M19.583,3.4,17.4,5.583l.312.312c.1.1.624-.1.936.208s.312,1.04,1.04,1.767a1.373,1.373,0,0,0,1.975-.208,1.373,1.373,0,0,0,.208-1.975A5.822,5.822,0,0,0,20,4.648c-.312-.312,0-.832-.208-.936Z" transform="translate(-1.368 -1.944)"/><path class="a" d="M4.6,3.4,6.783,5.583,6.471,5.9c-.1.1-.624-.1-.936.208S5.224,7.143,4.5,7.871a1.373,1.373,0,0,1-1.975-.208,1.373,1.373,0,0,1-.208-1.975,5.822,5.822,0,0,1,1.871-1.04c.312-.312,0-.832.208-.936Z" transform="translate(-1.98 -1.944)"/><path class="b" d="M9,16.119a3.119,3.119,0,1,1,6.238,0" transform="translate(-1.701 -1.563)"/><path class="a" d="M14.437,16.556c0,1.871-2.079,4.159-4.679,4.159a4.659,4.659,0,0,1-4.679-4.679c0-2.287,1.663-4.159,3.327-5.926,1.56-1.663,2.911-3.223,2.911-4.99A3.063,3.063,0,0,0,8.2,2a2.9,2.9,0,0,0-1.871.624L5.6,3.352l1.352,1.56.624-.52A.9.9,0,0,1,8.2,4.079a.982.982,0,0,1,1.04,1.04c0,.936-1.144,2.183-2.287,3.535C5.079,10.733,3,12.917,3,16.036a6.744,6.744,0,0,0,6.758,6.758c3.847,0,6.758-3.327,6.758-6.238Z" transform="translate(-1.939 -2)"/><g transform="translate(6.259 0)"><path class="a" d="M11.327,18.6A3.85,3.85,0,0,1,10.079,16H8a5.417,5.417,0,0,0,.936,3.015,1.319,1.319,0,0,0,.624.1A3.5,3.5,0,0,0,11.327,18.6Z" transform="translate(-8 -1.444)"/><path class="a" d="M17.367,8.654c-1.144-1.352-2.287-2.6-2.287-3.535a.982.982,0,0,1,1.04-1.04,1.478,1.478,0,0,1,.624.208,6.365,6.365,0,0,1,.624.52l1.352-1.56a6.152,6.152,0,0,0-.832-.624A2.446,2.446,0,0,0,16.119,2,3.063,3.063,0,0,0,13,5.119c0,1.767,1.352,3.327,2.911,4.99,1.663,1.871,3.327,3.743,3.327,5.926A4.565,4.565,0,0,1,15.7,20.506a11.392,11.392,0,0,1-2.287,2.183,4.265,4.265,0,0,0,1.144.1,6.744,6.744,0,0,0,6.758-6.758C21.317,12.917,19.238,10.733,17.367,8.654Z" transform="translate(-7.802 -2)"/></g></svg>