<svg xmlns="http://www.w3.org/2000/svg" width="15.669" height="22.5" viewBox="0 0 15.669 22.5"><defs><style>.a{fill:#f8c10e;}</style></defs><ellipse class="a" cx="2.647" cy="2.647" rx="2.647" ry="2.647" transform="translate(5.081 0)"/><path class="a" d="M21.168,22.706,17.2,19.265v-.529l2.25.529h.4a2.065,2.065,0,0,0,1.721-1.059,2.109,2.109,0,0,0,0-1.985L19.183,12.25A4.141,4.141,0,0,0,15.61,10H12.433A3.986,3.986,0,0,0,8.86,12.25L6.477,16.221a1.8,1.8,0,0,0,0,1.985,1.788,1.788,0,0,0,2.118.926l2.25-.529v.662L6.874,22.706a1.838,1.838,0,0,0-.662,1.324A1.489,1.489,0,0,0,7.8,25.882H9.918V23.368a1.469,1.469,0,0,1,1.456-1.456h.662a10.653,10.653,0,0,1,4.5.662l1.324.4-6.618.265v2.647h8.735a1.809,1.809,0,0,0,1.853-1.853A1.838,1.838,0,0,0,21.168,22.706Zm-7.279-8.338c-.529,0-1.191.926-1.985,2.25,0,0,.662-3.971,1.985-3.971s1.985,3.971,1.985,3.971C15.213,15.426,14.418,14.368,13.889,14.368Z" transform="translate(-6.161 -3.382)"/></svg>