<svg xmlns="http://www.w3.org/2000/svg" width="20.794" height="20.611" viewBox="0 0 20.794 20.611"><defs><style>.a{fill:none;stroke:#f8c10e;stroke-miterlimit:10;stroke-width:2px;}.b{fill:#f8c10e;}</style></defs><g transform="translate(0 -0.182)"><path class="a" d="M12.079,19.278V14.5a.944.944,0,0,0-.312-.728L10,12" transform="translate(-1.683 -1.603)"/><circle class="b" cx="2" cy="2" r="2" transform="translate(11.841 0.183)"/><g transform="translate(12.476 12.476)"><path class="b" d="M18.159,15.663a2.5,2.5,0,1,1-2.5,2.5,2.53,2.53,0,0,1,2.5-2.5m0-1.663a4.159,4.159,0,1,0,4.159,4.159A4.171,4.171,0,0,0,18.159,14Z" transform="translate(-14 -14)"/></g><g transform="translate(0 12.476)"><path class="b" d="M6.159,15.663a2.5,2.5,0,0,1,0,4.99,2.5,2.5,0,0,1,0-4.99m0-1.663a4.159,4.159,0,1,0,4.159,4.159A4.171,4.171,0,0,0,6.159,14Z" transform="translate(-2 -14)"/></g><path class="b" d="M17.292,10.159a.629.629,0,0,1-.624-.312C14.069,6.624,13.653,6,12.821,6H12.3c-.832,0-1.456.624-4.471,3.639-1.144,1.144-1.04,2.6.1,3.327l3.535,2.079,1.456-1.04-2.079-1.352,2.911-2.6,1.56,1.663a1.676,1.676,0,0,0,1.352.624h3.847V10.263H17.292Z" transform="translate(-1.801 -1.841)"/></g></svg>