<svg xmlns="http://www.w3.org/2000/svg" width="20.656" height="13.333" viewBox="0 0 20.656 13.333"><defs><style>.a{fill:#f8c10e;}.b{fill:none;stroke:#f8c10e;stroke-miterlimit:10;stroke-width:2px;}</style></defs><g transform="translate(0 0.382)"><circle class="a" cx="2.5" cy="2.5" r="2.5" transform="translate(14.733 -0.382)"/><path class="a" d="M22.656,16.446A16.42,16.42,0,0,0,16.976,15a10.543,10.543,0,0,0-4.544,1.136,9.406,9.406,0,0,1-3.718.93c-2.066,0-5.371-1.239-6.713-1.756v2.169a20.036,20.036,0,0,0,6.713,1.653A10.084,10.084,0,0,0,13.154,18a9.465,9.465,0,0,1,3.821-.93,16.769,16.769,0,0,1,5.68,1.653Z" transform="translate(-2 -6.18)"/><path class="b" d="M6,10.078,9.615,7.909a2.068,2.068,0,0,1,2.685.516c1.136,1.446,2.789,3.615,2.789,3.615" transform="translate(-1.869 -6.422)"/><path class="a" d="M6,14.151a3.367,3.367,0,0,0,2.582,1.033c2.582,0,3-2.066,8.779-2.066L14.263,9.4Z" transform="translate(-1.869 -6.364)"/></g></svg>